<svg width="490" height="360" viewBox="0 0 490 360" fill="none" xmlns="http://www.w3.org/2000/svg">
<path d="M257.454 27.7223L102.558 84.1512C88.3644 89.322 77.2693 100.633 72.3726 114.923L64.2928 138.503C54.5675 166.885 71.8529 197.382 101.2 203.618L151.574 214.323C172.337 218.736 183.197 241.706 173.429 260.552C163.302 280.093 175.367 303.803 197.126 307.117L336.425 328.336C370.57 333.537 399.58 303.375 393.054 269.458L385.927 232.421C383.837 221.557 385.408 210.306 390.397 200.431L420.857 140.126C433.914 114.274 422.345 82.7708 395.66 71.5143L294.002 28.6329C282.371 23.7267 269.315 23.4015 257.454 27.7223Z" fill="#FFFBEB"/>
<g clip-path="url(#clip0_20882_269287)">
<path d="M171.079 71.1133H386.773C395.001 71.1133 401.669 77.7815 401.669 86.0089V273.896C401.669 282.124 395.001 288.792 386.773 288.792H171.079C162.852 288.792 156.184 282.124 156.184 273.896V86.0089C156.184 77.7815 162.852 71.1133 171.079 71.1133Z" fill="white" stroke="#4B5563" stroke-width="1.5"/>
<path d="M178.349 97.9965C180.917 97.9965 182.998 95.9149 182.998 93.3469C182.998 90.7789 180.917 88.6973 178.349 88.6973C175.781 88.6973 173.699 90.7789 173.699 93.3469C173.699 95.9149 175.781 97.9965 178.349 97.9965Z" fill="#E5E7EB"/>
<path d="M193.482 97.9965C196.049 97.9965 198.131 95.9149 198.131 93.3469C198.131 90.7789 196.049 88.6973 193.482 88.6973C190.914 88.6973 188.832 90.7789 188.832 93.3469C188.832 95.9149 190.914 97.9965 193.482 97.9965Z" fill="#E5E7EB"/>
<path d="M208.614 97.9965C211.182 97.9965 213.264 95.9149 213.264 93.3469C213.264 90.7789 211.182 88.6973 208.614 88.6973C206.046 88.6973 203.965 90.7789 203.965 93.3469C203.965 95.9149 206.046 97.9965 208.614 97.9965Z" fill="#E5E7EB"/>
<path d="M183.731 161.916H215.142C218.559 161.916 221.342 164.699 221.342 168.116C221.342 171.532 218.559 174.315 215.142 174.315H183.731C180.314 174.315 177.531 171.532 177.531 168.116C177.531 164.699 180.314 161.916 183.731 161.916Z" fill="#FEF3C7"/>
<path d="M235.809 161.916H245.728C249.145 161.916 251.928 164.699 251.928 168.116C251.928 171.532 249.145 174.315 245.728 174.315H235.809C232.392 174.315 229.609 171.532 229.609 168.116C229.609 164.699 232.392 161.916 235.809 161.916Z" fill="#E5E7EB"/>
<path d="M183.731 187.541H191.446C194.863 187.541 197.646 190.324 197.646 193.741C197.646 197.157 194.863 199.94 191.446 199.94H183.731C180.314 199.94 177.531 197.157 177.531 193.741C177.531 190.324 180.314 187.541 183.731 187.541Z" fill="#FEF3C7"/>
<path d="M212.11 187.541H258.4C261.817 187.541 264.6 190.324 264.6 193.741C264.6 197.157 261.817 199.94 258.4 199.94H212.11C208.693 199.94 205.91 197.157 205.91 193.741C205.91 190.324 208.693 187.541 212.11 187.541Z" fill="#E5E7EB"/>
<path d="M279.067 187.541H318.744C322.161 187.541 324.944 190.324 324.944 193.741C324.944 197.157 322.161 199.94 318.744 199.94H279.067C275.65 199.94 272.867 197.157 272.867 193.741C272.867 190.324 275.65 187.541 279.067 187.541Z" fill="#FEF3C7"/>
<path d="M183.731 213.166H208.529C211.946 213.166 214.729 215.949 214.729 219.366C214.729 222.782 211.946 225.565 208.529 225.565H183.731C180.314 225.565 177.531 222.782 177.531 219.366C177.531 215.949 180.314 213.166 183.731 213.166Z" fill="#E5E7EB"/>
<path d="M183.731 239.006H219.456C222.873 239.006 225.656 241.789 225.656 245.205C225.656 248.622 222.873 251.405 219.456 251.405H183.731C180.314 251.405 177.531 248.622 177.531 245.205C177.531 241.789 180.314 239.006 183.731 239.006Z" fill="#E5E7EB"/>
<path d="M229.196 213.166H234.706C238.123 213.166 240.906 215.949 240.906 219.366C240.906 222.782 238.123 225.565 234.706 225.565H229.196C225.779 225.565 222.996 222.782 222.996 219.366C222.996 215.949 225.779 213.166 229.196 213.166Z" fill="#FEF3C7"/>
<path d="M240.121 239.006H274.771C278.188 239.006 280.971 241.789 280.971 245.205C280.971 248.622 278.188 251.405 274.771 251.405H240.121C236.705 251.405 233.922 248.622 233.922 245.205C233.922 241.789 236.705 239.006 240.121 239.006Z" fill="#FEF3C7"/>
<path d="M255.371 213.166H288.16C291.577 213.166 294.36 215.949 294.36 219.366C294.36 222.782 291.577 225.565 288.16 225.565H255.371C251.955 225.565 249.172 222.782 249.172 219.366C249.172 215.949 251.955 213.166 255.371 213.166Z" fill="#C7D2FE"/>
<path d="M317.428 138.079C320.607 138.079 323.184 135.498 323.184 132.315C323.184 129.131 320.607 126.551 317.428 126.551C314.249 126.551 311.672 129.131 311.672 132.315C311.672 135.498 314.249 138.079 317.428 138.079Z" fill="#F3F4F6" stroke="#4B5563" stroke-width="1.5" stroke-linecap="round" stroke-linejoin="round"/>
<path d="M321.5 136.395L323.253 138.15L321.5 136.395Z" fill="#4B5563"/>
<path d="M321.5 136.395L323.253 138.15" stroke="#4B5563" stroke-width="1.5" stroke-linecap="round" stroke-linejoin="round"/>
<path d="M330.445 137.316H375.784H330.445Z" fill="#4B5563"/>
<path d="M330.445 137.316H375.784" stroke="#4B5563" stroke-width="1.5" stroke-linecap="round" stroke-linejoin="round"/>
</g>
<g clip-path="url(#clip1_20882_269287)">
<path d="M28.2725 326.087L46.0735 334.484C48.1208 334.658 50.7926 335.144 53.7768 335.942L58.3225 336.601C58.3572 336.601 58.3572 336.601 58.3572 336.566L58.0449 318.627L57.7673 302.803C57.7673 302.803 57.7673 302.769 57.7326 302.769L52.7705 301.277C49.0576 300.687 44.7549 300.236 40.7991 299.889C40.7991 299.889 40.7991 299.889 40.7644 299.889L39.0988 300.86L28.2031 326.052C28.2378 326.087 28.2378 326.087 28.2725 326.087Z" fill="#FFCDBD"/>
<path d="M114.362 266.577C113.46 266.091 58.8776 236.423 62.6599 256.271C64.5336 266.091 71.3695 279.797 77.893 291.283C84.2431 302.491 90.2808 311.548 90.9748 312.589C91.0095 312.623 90.9748 312.658 90.9401 312.623C78.9687 307.071 68.5588 303.775 52.8745 301.311C52.8398 301.311 52.8398 301.311 52.8398 301.346L53.8114 335.941C53.8114 335.941 53.8114 335.976 53.8461 335.976C61.8618 338.128 72.6534 342.153 83.3062 345.033C94.1325 348.572 102.391 349.266 108.637 347.948C141.185 340.904 118.596 277.889 114.362 266.577Z" fill="#A5B4FC"/>
<path opacity="0.2" d="M117.761 276.294C117.726 276.259 117.761 276.294 117.761 276.294C116.859 275.669 58.8755 236.458 62.6577 256.272C64.5315 266.057 71.3674 279.798 77.8562 291.249C77.8562 291.249 77.8909 291.284 77.8909 291.249C78.689 291.041 100.966 285.836 108.6 304.782C116.685 324.873 109.086 346.595 108.635 347.844C108.635 347.879 108.635 347.879 108.67 347.879C117.518 346.075 122.758 339.343 124.805 330.39C127.824 303.359 119.01 280.909 117.761 276.294Z" fill="#080602"/>
<path d="M124.944 174.137C124.944 174.102 124.979 174.102 124.979 174.102C129.143 176.497 132.96 177.191 136.777 175.456C140.594 173.721 141.288 168.134 141.635 164.005C141.635 164.005 141.635 163.97 141.669 163.97C145.521 162.131 145.348 161.09 142.259 158.314V158.279C142.745 153.352 143.196 147.106 142.016 143.81C140.281 138.952 133.307 134.718 121.821 136.453C104.575 138.57 108.705 157.516 101.695 170.667C101.695 170.702 101.695 170.702 101.73 170.702C102.702 171.014 123.209 177.399 124.146 177.676C124.181 177.676 124.181 177.676 124.181 177.642L124.944 174.137Z" fill="#FFCDBD"/>
<path opacity="0.2" d="M124.946 174.138L124.148 177.677C124.148 177.712 124.114 177.712 124.079 177.677C123.732 176.983 121.476 172.368 120.748 170.946C120.713 170.911 120.782 170.876 120.817 170.911C122.934 172.889 124.738 173.999 124.946 174.138C124.946 174.103 124.946 174.103 124.946 174.138Z" fill="#171717"/>
<path d="M23.7266 346.769C23.5878 345.485 20.4995 322.063 20.4648 321.889C20.4648 321.716 22.061 300.202 22.1651 299.334C22.1651 299.334 22.1651 299.3 22.1998 299.3C28.5499 299.161 34.5529 299.334 40.7989 299.855C40.8336 299.855 40.8336 299.89 40.8336 299.89C40.6601 313.7 33.3731 322.583 32.6097 323.485C32.575 323.52 32.6097 323.555 32.6444 323.555L40.3825 322.063C43.1931 321.508 45.7956 323.59 45.8997 326.47L46.0385 334.451C46.0385 334.485 46.0038 334.485 46.0038 334.485C44.9628 334.381 44.0953 334.451 43.089 334.451C30.9095 334.936 29.6603 342.917 23.7613 346.804C23.7613 346.804 23.7266 346.804 23.7266 346.769Z" fill="#111827"/>
<path d="M21.6786 347.878C20.36 348.399 18.9027 348.711 17.0289 348.781C16.9942 348.781 16.9942 348.781 16.9942 348.746L15.3633 299.611C15.3633 299.576 15.3633 299.576 15.398 299.576C17.6535 299.438 20.013 299.334 22.1644 299.299C22.1991 299.299 22.1991 299.299 22.1991 299.334L23.7259 346.803V346.837C23.136 347.219 22.442 347.566 21.6786 347.878Z" fill="#111827"/>
<path d="M34.2383 330.426L36.4591 335.284" stroke="#4B5563" stroke-width="1.5" stroke-linecap="round" stroke-linejoin="round"/>
<path d="M28.9648 333.93L32.2266 338.024" stroke="#4B5563" stroke-width="1.5" stroke-linecap="round" stroke-linejoin="round"/>
<path d="M224.048 186.04C224.777 185.624 228.178 183.577 227.553 181.078C224.569 176.186 168.459 199.122 167.696 200.163H167.661C167.071 199.885 159.542 196.173 151.561 192.113C151.526 192.113 151.526 192.113 151.526 192.147L147.362 205.194L143.406 221.26C143.406 221.295 143.406 221.295 143.441 221.295C150.658 223.794 158.605 225.945 164.573 225.945C179.008 225.945 203.61 207.97 204.235 207.519C204.235 207.519 204.235 207.519 204.27 207.519C208.607 208.422 213.049 208.907 217.49 208.907C225.124 208.907 231.717 207.172 232.446 204.084C232.446 204.084 232.446 204.049 232.48 204.049C232.827 204.015 237.963 203.217 237.338 199.226C237.338 199.191 237.338 199.191 237.373 199.191C237.789 199.122 241.884 198.324 240.635 195.548C239.767 193.639 223.597 193.639 223.597 192.425C223.597 192.078 241.329 191.384 240.808 188.435C240.323 185.138 225.783 186.006 224.118 186.11C224.014 186.11 224.014 186.04 224.048 186.04Z" fill="#FFCDBD"/>
<path d="M143.511 189.18C145.787 190.184 148.154 191.229 150.542 192.508L142.817 220.325C136.608 218.094 130.594 215.697 124.649 212.863C124.618 212.841 124.584 212.82 124.546 212.802C124.36 212.709 124.185 212.715 124.082 212.732C123.98 212.749 123.904 212.783 123.864 212.803C123.783 212.844 123.727 212.89 123.707 212.906C123.703 212.909 123.7 212.912 123.696 212.915C123.687 212.923 123.679 212.93 123.673 212.936L123.661 212.948L123.656 212.953L123.653 212.955L123.652 212.956L123.652 212.956L123.652 212.957C123.651 212.957 123.651 212.957 124.182 213.487L123.651 212.957L123.601 213.007L123.561 213.066L119.675 218.791L119.675 218.792L109.661 233.506L86.9519 237.018L63.8239 233.246C71.8628 206.746 80.9367 192.537 88.0555 184.944C95.0503 177.483 100.174 176.391 100.631 176.302C100.738 176.287 100.849 176.248 100.952 176.179C101.089 176.088 101.171 175.972 101.218 175.879C101.26 175.793 101.279 175.716 101.289 175.663L102.161 171.738L123.341 177.767L122.823 180.192L122.807 180.27L122.807 180.349L123.557 180.349C122.807 180.349 122.807 180.35 122.807 180.35V180.351L122.807 180.352L122.807 180.355L122.807 180.361L122.807 180.375C122.808 180.384 122.808 180.393 122.809 180.404C122.81 180.425 122.813 180.45 122.818 180.478C122.826 180.53 122.845 180.612 122.891 180.702C122.937 180.795 123.019 180.911 123.156 181.002C123.24 181.059 123.329 181.095 123.417 181.114C123.444 181.122 123.477 181.132 123.517 181.144C124.571 181.45 130.397 183.143 139.756 187.482C140.97 188.059 142.226 188.613 143.511 189.18Z" fill="white" stroke="#4B5563" stroke-width="1.5"/>
<path opacity="0.2" d="M117.24 210.017L120.328 219.108C120.328 219.143 120.363 219.143 120.398 219.108L124.25 213.452C124.25 213.418 124.25 213.418 124.25 213.418L117.31 209.982C117.24 209.982 117.205 209.982 117.24 210.017Z" fill="#383939"/>
<path d="M85.4907 111.227C96.8722 99.6718 126.02 125.974 115.679 138.466C104.298 150.021 75.1502 123.753 85.4907 111.227Z" fill="#111827"/>
<path d="M148.439 140.547C145.767 137.528 140.215 139.818 139.833 139.992H139.798C136.606 135.828 130.464 131.803 121.824 133.087C110.373 134.822 107.562 145.579 105.133 154.947C105.133 154.982 105.099 154.982 105.064 154.982C104.162 154.184 88.1305 140.617 72.932 153.455C65.1593 160.014 67.033 174.622 69.809 179.168V179.203C62.1751 185.102 65.3328 202.139 75.014 203.18H75.0487C75.2916 202.764 79.282 195.442 81.9886 191.729H82.0233C90.7329 195.858 101.143 192.562 104.613 189.994C116.792 180.938 117.486 169.487 118.18 163.553V163.518C116.445 161.436 111.24 154.496 116.098 149.951C121.512 144.885 127.306 154.982 127.584 155.468C127.584 155.468 127.584 155.503 127.619 155.468C128.139 155.399 137.855 153.906 143.581 150.61C150.174 146.793 150.104 142.421 148.439 140.547Z" fill="#111827"/>
<path d="M119.531 155.504L121.995 158.627" stroke="#171717" stroke-width="1.5" stroke-linecap="round" stroke-linejoin="round"/>
<path d="M124.945 174.137C122.447 172.506 120.781 170.875 120.781 170.875" stroke="#171717" stroke-width="1.5" stroke-linecap="round" stroke-linejoin="round"/>
<path d="M135.215 164.213C135.562 165.254 136.603 165.948 137.297 165.948" stroke="#171717" stroke-width="1.5" stroke-linecap="round" stroke-linejoin="round"/>
<path d="M137.992 156.545C139.345 156.58 139.345 158.592 137.992 158.627C136.638 158.592 136.638 156.58 137.992 156.545Z" fill="#17151C"/>
<path d="M123.871 212.505L117 209" stroke="#4B5563" stroke-width="1.5" stroke-linecap="round" stroke-linejoin="round"/>
<path d="M117.692 134.197C114.187 135.62 111.897 138.188 110.023 141.241" stroke="#111827" stroke-width="1.5" stroke-linecap="round" stroke-linejoin="round"/>
<path d="M224.047 186.109L216.969 186.665" stroke="#4B5563" stroke-width="1.5" stroke-linecap="round" stroke-linejoin="round"/>
<path d="M237.269 199.225C237.269 199.225 230.502 199.676 221.48 198.635" stroke="#4B5563" stroke-width="1.5" stroke-linecap="round" stroke-linejoin="round"/>
<path d="M232.41 204.083L219.051 203.389" stroke="#4B5563" stroke-width="1.5" stroke-linecap="round" stroke-linejoin="round"/>
<path d="M142.398 336.254L151.351 318.731C151.594 316.684 152.183 314.012 153.086 311.062L153.849 306.551C153.849 306.517 153.849 306.517 153.814 306.517L120.052 305.996C120.052 305.996 120.017 305.996 120.017 306.031L118.351 311.062C117.657 314.74 116.998 318.557 116.547 322.513C116.547 322.513 116.547 322.513 116.547 322.548L117.518 324.56L142.329 336.254C142.398 336.289 142.398 336.289 142.398 336.254Z" fill="#FFCDBD"/>
<path d="M131.016 273.135C131.051 273.135 131.051 273.17 131.051 273.17C128.587 278.062 126.505 282.712 124.701 287.605C122.133 294.51 120.155 301.901 118.386 311.027C118.386 311.062 118.386 311.062 118.42 311.062H153.085C153.085 311.062 153.12 311.062 153.12 311.027C178.555 243.987 170.886 239.789 110.127 234.202C110.023 234.202 64.1153 233.82 62.9355 233.82C62.9355 233.82 62.9008 233.82 62.9008 233.855C62.762 234.306 60.7841 241.142 59.7431 249.123C58.3204 260.435 61.3393 278.652 81.6733 279.45C106.206 280.353 129.524 273.551 131.016 273.135Z" fill="#A5B4FC"/>
<path opacity="0.2" d="M131.085 273.101C128.656 277.959 126.539 282.609 124.77 287.432C124.77 287.467 124.804 287.501 124.839 287.467C133.063 278.792 142.744 273.552 143.577 269.076C143.577 269.041 143.542 269.041 143.542 269.041C137.47 271.227 131.432 272.997 131.085 273.101Z" fill="#080602"/>
<path d="M70.0156 276.293C73.2427 278.201 76.6086 279.242 81.7094 279.415C95.277 279.936 108.463 278.097 117.797 276.258" stroke="#4B5563" stroke-width="1.5" stroke-linecap="round" stroke-linejoin="round"/>
<path d="M162.872 341.459C161.658 341.598 140.213 344.339 140.04 344.339C139.831 344.305 116.34 341.563 115.472 341.425L115.438 341.39C115.542 335.04 115.854 328.759 116.583 322.548C116.583 322.513 116.617 322.513 116.617 322.513C130.428 323.138 139.103 330.98 139.97 331.813C140.005 331.848 140.04 331.813 140.04 331.778L138.79 324.005C138.339 321.195 140.525 318.627 143.371 318.627L151.352 318.731C151.386 318.731 151.386 318.766 151.386 318.766C151.248 319.807 151.248 320.709 151.248 321.715C151.317 333.86 159.333 335.456 162.907 341.425C162.941 341.425 162.907 341.459 162.872 341.459Z" fill="#111827"/>
<path d="M163.947 343.541C164.398 344.859 164.676 346.351 164.676 348.19C164.676 348.225 164.676 348.225 164.641 348.225H115.506C115.472 348.225 115.472 348.225 115.472 348.19C115.402 345.935 115.402 343.61 115.437 341.459C115.437 341.424 115.437 341.424 115.472 341.424L162.906 341.459C162.906 341.459 162.941 341.459 162.941 341.493C163.288 342.118 163.669 342.777 163.947 343.541Z" fill="#111827"/>
<path d="M146.91 330.46L152.15 328.273" stroke="#4B5563" stroke-width="1.5" stroke-linecap="round" stroke-linejoin="round"/>
<path d="M150.277 335.838L154.372 332.75" stroke="#4B5563" stroke-width="1.5" stroke-linecap="round" stroke-linejoin="round"/>
<path d="M64 233L109.5 233.5" stroke="#4B5563" stroke-width="1.5" stroke-linecap="round" stroke-linejoin="round"/>
<path d="M131.086 273.101L143.543 269.041" stroke="#4B5563" stroke-width="1.5" stroke-linecap="round" stroke-linejoin="round"/>
</g>
<path d="M399 302C407.836 302 415 294.836 415 286C415 277.164 407.836 270 399 270C390.164 270 383 277.164 383 286C383 294.836 390.164 302 399 302Z" fill="#6366F1"/>
<path d="M399 279.598V292.398" stroke="white" stroke-width="2" stroke-linecap="round" stroke-linejoin="round"/>
<path d="M392.6 285.998H405.4" stroke="white" stroke-width="2" stroke-linecap="round" stroke-linejoin="round"/>
<defs>
<clipPath id="clip0_20882_269287">
<rect width="248" height="220" fill="white" transform="translate(155 70)"/>
</clipPath>
<clipPath id="clip1_20882_269287">
<rect width="225.904" height="240" fill="white" transform="translate(15 108)"/>
</clipPath>
</defs>
</svg>
