<svg width="16" height="16" viewBox="0 0 16 16" fill="none" xmlns="http://www.w3.org/2000/svg">
<path fill-rule="evenodd" clip-rule="evenodd" d="M2.56693 7.99999C2.56693 4.99925 4.99951 2.56666 8.00026 2.56666C11.001 2.56666 13.4336 4.99925 13.4336 7.99999C13.4336 11.0007 11.001 13.4333 8.00026 13.4333C4.99951 13.4333 2.56693 11.0007 2.56693 7.99999ZM8.00026 1.43333C4.37359 1.43333 1.43359 4.37332 1.43359 7.99999C1.43359 11.6267 4.37359 14.5667 8.00026 14.5667C11.6269 14.5667 14.5669 11.6267 14.5669 7.99999C14.5669 4.37332 11.6269 1.43333 8.00026 1.43333ZM6.40095 5.5993C6.17966 5.378 5.82086 5.378 5.59957 5.5993C5.37827 5.8206 5.37827 6.17939 5.59957 6.40069L7.19887 7.99999L5.59957 9.5993C5.37827 9.8206 5.37827 10.1794 5.59957 10.4007C5.82086 10.622 6.17966 10.622 6.40095 10.4007L8.00026 8.80138L9.59957 10.4007C9.82086 10.622 10.1797 10.622 10.401 10.4007C10.6223 10.1794 10.6223 9.8206 10.401 9.5993L8.80165 7.99999L10.401 6.40069C10.6223 6.17939 10.6223 5.8206 10.401 5.5993C10.1797 5.378 9.82086 5.378 9.59957 5.5993L8.00026 7.19861L6.40095 5.5993Z" fill="#DC2626"/>
</svg>
