<svg width="256" height="200" viewBox="0 0 256 200" fill="none" xmlns="http://www.w3.org/2000/svg">
<path d="M139.03 22.068L52.9768 53.4174C45.0914 56.29 38.9275 62.5737 36.2071 70.5128L31.7184 83.6126C26.3154 99.3805 35.9184 116.323 52.2222 119.788L80.2081 125.735C91.7431 128.187 97.7762 140.948 92.3498 151.418C86.7233 162.274 93.4264 175.446 105.514 177.287L182.903 189.075C201.873 191.965 217.989 175.209 214.363 156.366L210.404 135.79C209.243 129.754 210.116 123.504 212.887 118.017L229.809 84.5145C237.064 70.1524 230.636 52.6505 215.811 46.3969L159.335 22.5739C152.873 19.8482 145.62 19.6675 139.03 22.068Z" fill="#FFFBEB"/>
<g clip-path="url(#clip0_14821_327228)">
<rect x="27.1113" y="5.55554" width="166.667" height="111.111" rx="11.1111" fill="#F3F4F6"/>
<rect x="54.8887" y="16.6666" width="111.111" height="11.1111" rx="5.55556" fill="#F3F4F6"/>
<rect x="38.2222" y="38.8889" width="55.5556" height="11.1111" rx="5.55556" fill="#F3F4F6"/>
<rect x="127.111" y="38.8889" width="55.5556" height="11.1111" rx="5.55556" fill="#F3F4F6"/>
<rect x="38.2222" y="61.1111" width="55.5556" height="11.1111" rx="5.55556" fill="#F3F4F6"/>
<rect x="127.111" y="61.1111" width="55.5556" height="11.1111" rx="5.55556" fill="#F3F4F6"/>
<rect x="38.2222" y="83.3334" width="55.5556" height="11.1111" rx="5.55556" fill="#F3F4F6"/>
<rect x="127.111" y="83.3334" width="55.5556" height="11.1111" rx="5.55556" fill="#F3F4F6"/>
<rect x="7.6665" y="15.5555" width="166.667" height="111.111" rx="11.1111" fill="#E5E7EB"/>
<rect x="35.4443" y="26.6666" width="111.111" height="11.1111" rx="5.55556" fill="#6366F1"/>
<rect x="18.7778" y="48.8889" width="55.5556" height="11.1111" rx="5.55556" fill="#D1D5DB"/>
<rect x="107.667" y="48.8889" width="55.5556" height="11.1111" rx="5.55556" fill="#FDE68A"/>
<rect x="18.7778" y="71.1111" width="55.5556" height="11.1111" rx="5.55556" fill="#D1D5DB"/>
<rect x="107.667" y="71.1111" width="55.5556" height="11.1111" rx="5.55556" fill="#A5B4FC"/>
<rect x="18.7778" y="93.3334" width="55.5556" height="11.1111" rx="5.55556" fill="#D1D5DB"/>
<rect x="107.667" y="93.3334" width="55.5556" height="11.1111" rx="5.55556" fill="#9CA3AF"/>
<rect x="16.4167" y="21.5278" width="165.833" height="110.278" rx="10.6944" fill="white" stroke="#4B5563" stroke-width="0.833333"/>
<rect x="43.7778" y="32.2222" width="111.111" height="11.1111" rx="5.55556" fill="#C7D2FE"/>
<rect x="27.1113" y="71.1111" width="55.5556" height="11.1111" rx="2.77778" fill="#E5E7EB"/>
<rect x="116" y="71.1111" width="55.5556" height="11.1111" rx="2.77778" fill="#FEF3C7"/>
<rect x="27.1113" y="102.222" width="55.5556" height="11.1111" rx="2.77778" fill="#E5E7EB"/>
<rect x="116" y="102.222" width="55.5556" height="11.1111" rx="2.77778" fill="#C7D2FE"/>
<path d="M178.222 138.889C184.359 138.889 189.334 133.914 189.334 127.778C189.334 121.642 184.359 116.667 178.222 116.667C172.086 116.667 167.111 121.642 167.111 127.778C167.111 133.914 172.086 138.889 178.222 138.889Z" fill="#6366F1"/>
<path d="M178.222 123.333V132.222" stroke="white" stroke-width="1.11111" stroke-linecap="round" stroke-linejoin="round"/>
<path d="M173.778 127.778H182.667" stroke="white" stroke-width="1.11111" stroke-linecap="round" stroke-linejoin="round"/>
</g>
<path d="M200.488 174.769C200.506 176.436 200.525 177.975 200.452 179.348C200.415 180.283 200.342 181.125 200.25 181.913L202.467 192.794L217.726 187.775C218.642 183.488 219.155 179.147 219.283 174.769L210.435 161.213L200.488 174.769Z" fill="#FFCDBD"/>
<path d="M190.287 197.485L214.797 197.778C214.797 197.778 215.218 196.459 215.933 194.334L190.909 194.352C190.561 195.378 190.305 196.422 190.287 197.485Z" fill="#111827"/>
<path d="M207.268 189.021L203.934 191.055C203.531 191.311 202.981 191.183 202.743 190.762C202.597 190.523 202.578 190.23 202.688 189.974L204.575 185.504C205.106 184.222 204.52 182.738 203.238 182.207C202.927 182.079 202.597 182.005 202.249 182.005H200.472C200.344 182.005 200.252 182.097 200.234 182.225C200.069 183.581 199.812 184.68 199.446 185.486C197.394 190.12 192.393 190.12 190.928 194.352C190.873 194.517 190.983 194.682 191.148 194.682L215.64 194.901C215.749 194.901 215.841 194.828 215.878 194.737C216.537 192.703 217.178 190.322 217.655 188.179C217.691 188.032 217.563 187.886 217.416 187.886H211.353C209.924 187.867 208.495 188.27 207.268 189.021Z" fill="#111827"/>
<path d="M196.815 188.888L198.896 190.707" stroke="#4B5563" stroke-width="0.833333" stroke-linecap="round" stroke-linejoin="round"/>
<path d="M247.733 174.77L238.629 161.398L228.755 174.77C229.03 176.455 229.232 178.031 229.342 179.441C229.433 180.357 229.488 181.218 229.506 182.006L233.262 192.356L247.367 187.868C247.862 183.526 247.953 179.148 247.733 174.77Z" fill="#FFCDBD"/>
<path d="M221.3 194.389C220.952 195.396 220.714 196.422 220.695 197.485L245.609 197.668C245.609 197.668 245.938 196.459 246.36 194.371L221.3 194.389Z" fill="#111827"/>
<path d="M237.492 189.021L234.158 191.055C233.755 191.311 233.205 191.183 232.967 190.762C232.82 190.523 232.802 190.23 232.912 189.974L234.799 185.504C235.33 184.222 234.744 182.738 233.462 182.207C233.15 182.079 232.82 182.005 232.472 182.005H229.505C229.523 183.672 229.34 185.009 228.937 185.944C226.83 190.688 221.976 189.937 221.316 194.553L246.303 194.663C246.633 192.96 247.054 190.578 247.347 187.867H241.577C240.148 187.867 238.719 188.27 237.492 189.021Z" fill="#111827"/>
<path d="M247.257 169.64C247.092 168.413 246.928 167.259 246.744 166.16C244.748 153.942 241.725 149.875 241.212 139.781C240.663 128.79 245.242 111.204 236.083 94.5345H226.924H217.581H209.338C209.338 94.5345 198.347 124.76 199.263 148.941C199.483 154.894 199.886 160.811 200.16 166.16C200.325 169.256 200.453 172.168 200.49 174.77H208.752L210.748 164.328L214.321 174.77H219.285C219.34 172.846 219.322 170.813 219.212 168.725C219.175 167.809 219.138 166.948 219.083 166.16C218.479 156.909 218.131 155.92 217.948 147.658C217.874 144.178 219.248 139.507 221.025 134.212C221.758 139.69 222.619 144.91 223.626 149.307C224.927 155.004 226.008 160.866 227.107 166.16C227.748 169.237 228.334 172.15 228.756 174.77H237.384L239.159 165.059L242.861 174.77H247.734C247.642 173.103 247.495 171.381 247.257 169.64Z" fill="#A5B4FC"/>
<path opacity="0.2" d="M218.844 141.429C219.631 138.59 221.023 134.212 221.023 134.212L219.1 116.076L218.55 120.308C217.891 128.954 218.844 141.429 218.844 141.429Z" fill="#1D1D1D"/>
<path opacity="0.2" d="M236.081 94.5345H224.064C238.554 107.303 240.899 108.237 240.899 108.237C240.057 103.712 238.591 99.0775 236.081 94.5345Z" fill="#1D1D1D"/>
<path d="M226.765 188.875L228.939 190.707" stroke="#4B5563" stroke-width="0.833333" stroke-linecap="round" stroke-linejoin="round"/>
<path d="M219.1 116.076C219.631 121.993 220.235 128.46 221.078 134.596" stroke="#4B5563" stroke-width="0.833333" stroke-linecap="round" stroke-linejoin="round"/>
<path d="M211.058 55.1866C210.784 56.6338 210.82 58.429 211.296 59.9128C214.191 59.235 216.884 58.8137 216.884 58.8137L217.03 55.5164C215.766 55.9927 212.927 56.2491 211.058 55.1866Z" fill="#111827"/>
<path d="M207.321 61.01C203.291 62.4755 187.17 69.2534 187.17 69.2534C187.17 69.2534 160.792 59.5445 156.945 61.01C155.479 61.5596 157.494 64.1242 158.594 64.6737C158.594 64.6737 155.296 65.1683 154.93 67.1834C154.655 68.7038 155.846 69.5831 155.846 69.5831C155.846 69.5831 154.124 70.957 155.681 72.6606C155.681 72.6606 154.655 74.7123 157.055 75.9213C157.055 75.9213 156.047 77.3318 158.96 78.3577C161.085 79.1087 161.818 78.1928 161.671 77.1853C163.649 77.4051 165.976 77.4234 167.203 76.5808C167.203 76.5808 181.309 84.6409 189.918 83.3586C197.722 82.1862 210.618 78.2294 210.618 78.2294L207.321 61.01Z" fill="#FFCDBD"/>
<path opacity="0.2" d="M208.404 67.5857L204.209 80.0789C207.909 79.0714 210.62 78.2288 210.62 78.2288L208.404 67.5857Z" fill="#161515"/>
<path d="M158.779 64.7678C159.676 65.1891 160.776 65.6471 161.71 65.9585C161.71 65.9585 163.358 70.5382 168.121 70.355" stroke="#4B5563" stroke-width="0.833333" stroke-linecap="round" stroke-linejoin="round"/>
<path d="M155.848 69.6212C157.496 70.1891 159.255 70.3723 160.977 70.1708" stroke="#4B5563" stroke-width="0.833333" stroke-linecap="round" stroke-linejoin="round"/>
<path d="M155.665 72.7355C156.947 73.4682 159.511 73.6514 161.343 73.4682" stroke="#4B5563" stroke-width="0.833333" stroke-linecap="round" stroke-linejoin="round"/>
<path d="M157.13 76.033C158.046 76.2161 160.061 76.3993 161.16 76.2161" stroke="#4B5563" stroke-width="0.833333" stroke-linecap="round" stroke-linejoin="round"/>
<path d="M234.251 85.9244C236.083 86.1076 238.922 86.474 238.922 86.474" stroke="#4B5563" stroke-width="0.833333" stroke-linecap="round" stroke-linejoin="round"/>
<path d="M208.422 95.4501C209.448 95.0838 210.913 94.351 211.664 94.1862" stroke="#4B5563" stroke-width="0.833333" stroke-linecap="round" stroke-linejoin="round"/>
<path d="M231.08 39.3022C228.571 38.1115 225.127 37.6902 221.39 37.1773C217.598 36.6461 214.062 36.701 211.315 37.1956C210.582 38.9175 210.215 41.0242 209.721 43.6254C209.721 43.6254 208.695 43.8636 208.164 44.3032C207.999 44.4131 207.889 44.5963 207.852 44.7978C207.761 45.6038 209.043 46.8495 209.043 46.8495C208.292 51.0078 208.622 52.9495 210.27 54.5982C210.509 54.8363 210.783 55.0379 211.076 55.2027C212.945 56.2652 215.766 55.9904 217.03 55.5141L216.883 58.8115C216.883 58.8115 217.415 63.3911 222.544 63.3911C227.673 63.3911 230.238 58.7931 230.238 58.7931C230.238 58.7931 230.531 53.4075 230.75 49.1026C230.842 47.5273 230.97 45.1458 231.007 44.5963C231.117 43.0209 231.208 40.8776 231.08 39.3022Z" fill="#FFCDBD"/>
<path opacity="0.2" d="M217.03 55.516L216.957 57.0547C216.957 57.0547 219.191 55.6259 220.345 54.197C218.569 55.0946 217.03 55.516 217.03 55.516Z" fill="#161515"/>
<path d="M246.524 53.316C244.638 49.2859 238.281 45.9886 230.983 48.8408C230.771 48.9012 231.393 44.1567 231.192 39.9435C231.009 36.0233 228.371 32.4146 223.919 32.0482C216.244 31.2605 212.507 34.1914 211.28 37.1957C210.932 38.0567 210.675 39.0275 210.474 39.9251C210.474 39.9251 212.232 40.8777 214.214 40.1193C214.67 39.8922 215.951 43.7171 218.73 43.6072C218.772 43.5522 219.431 45.3474 220.512 45.8603C220.512 45.9153 225.275 42.5813 227.272 45.2375C229.653 48.9012 223.608 52.3817 223.608 52.3817C224.267 55.6058 226.795 58.1154 230.02 58.7566L230.203 58.7932C230.203 58.7932 236.01 59.874 237.475 60.6068C237.475 60.6068 241.011 62.0539 243.795 67.348C246.836 65.0215 249.016 58.6284 246.524 53.316Z" fill="#111827"/>
<path d="M213.001 44.0302C213.335 44.0302 213.606 43.7591 213.606 43.4257C213.606 43.0904 213.335 42.8212 213.001 42.8212C212.666 42.8212 212.397 43.0904 212.397 43.4257C212.397 43.7591 212.666 44.0302 213.001 44.0302Z" fill="#111827"/>
<path d="M211.353 48.3715C212.031 48.3715 212.654 48.0234 213.002 47.4556L211.353 48.3715Z" fill="#111827"/>
<path d="M211.353 48.3715C212.031 48.3715 212.654 48.0234 213.002 47.4556" stroke="#111827" stroke-width="0.833333" stroke-linecap="round" stroke-linejoin="round"/>
<path d="M222.527 48.5547L224.542 47.4556L222.527 48.5547Z" fill="#111827"/>
<path d="M222.527 48.5547L224.542 47.4556" stroke="#111827" stroke-width="0.833333" stroke-linecap="round" stroke-linejoin="round"/>
<path d="M217.032 55.516C217.911 55.2595 218.809 54.6183 219.633 54.197L217.032 55.516Z" fill="#111827"/>
<path d="M217.032 55.516C217.911 55.2595 218.809 54.6183 219.633 54.197" stroke="#111827" stroke-width="0.833333" stroke-linecap="round" stroke-linejoin="round"/>
<path d="M223.809 54.6009C224.921 54.6009 225.825 53.6978 225.825 52.5858C225.825 51.4721 224.921 50.5708 223.809 50.5708C222.696 50.5708 221.794 51.4721 221.794 52.5858C221.794 53.6978 222.696 54.6009 223.809 54.6009Z" fill="white"/>
<path d="M231.228 39.5973C231.045 35.6771 228.407 32.05 223.993 31.3723C215.603 30.09 212.507 33.7903 211.298 36.7945C211.115 37.2525 210.95 37.6921 210.803 38.1684L231.247 42.6381C231.283 41.6306 231.283 40.5865 231.228 39.5973Z" fill="#374151"/>
<path opacity="0.2" d="M231.21 39.4693C231.027 35.5491 228.536 32.0686 224.121 31.3908C223.681 31.3176 223.15 31.2626 222.747 31.2076C225.568 32.7464 227.217 35.9338 227.363 39.0846C227.418 40.0372 227.418 41.0447 227.382 42.0156L231.265 42.8582C231.284 41.869 231.265 40.4585 231.21 39.4693Z" fill="#1D1D1D"/>
<path d="M204.005 36.6461L237.492 44.0102L204.005 36.6461Z" fill="#374151"/>
<path d="M204.005 36.6461L237.492 44.0102" stroke="#374151" stroke-width="0.833333" stroke-linecap="round" stroke-linejoin="round"/>
<path d="M158.575 66.6154C158.832 66.5055 162.037 68.6488 161.213 69.931" stroke="#4B5563" stroke-width="0.833333" stroke-linecap="round" stroke-linejoin="round"/>
<path d="M161.105 70.1705C161.655 70.0606 162.699 72.0023 161.472 73.2846" stroke="#4B5563" stroke-width="0.833333" stroke-linecap="round" stroke-linejoin="round"/>
<path d="M161.268 73.4324C161.671 73.3775 162.404 74.9346 161.36 76.1253" stroke="#4B5563" stroke-width="0.833333" stroke-linecap="round" stroke-linejoin="round"/>
<path d="M161.252 76.1611C161.655 76.1062 162.223 77.9197 160.922 78.4876" stroke="#4B5563" stroke-width="0.833333" stroke-linecap="round" stroke-linejoin="round"/>
<path d="M229.993 59.7325C230.171 59.5343 230.307 59.367 230.403 59.2456C230.404 59.2458 230.405 59.2461 230.407 59.2463C230.569 59.2735 230.802 59.3133 231.087 59.364C231.656 59.4654 232.43 59.6099 233.249 59.7828C234.069 59.9558 234.928 60.1561 235.67 60.3687C236.283 60.5442 236.786 60.72 237.121 60.8839L235.684 94.1162H209.73L207.758 61.3079C208.953 60.9282 210.171 60.5844 211.387 60.3179L211.387 60.3179L211.393 60.3164C212.822 59.9797 214.212 59.7063 215.245 59.517C215.761 59.4224 216.188 59.3489 216.485 59.2991C216.514 59.2943 216.542 59.2896 216.569 59.2852C216.717 59.8301 216.943 60.3481 217.246 60.8281C218.02 62.0763 219.478 63.4417 222.161 63.4417C224.845 63.4417 226.947 62.3338 228.368 61.2394C229.08 60.6917 229.625 60.1442 229.993 59.7325Z" fill="white" stroke="#4B5563" stroke-width="0.833333"/>
<path d="M245.607 71.8199C245.149 70.2812 244.544 68.7974 243.811 67.3868C241.027 62.0928 237.547 60.6456 237.547 60.6456C236.246 61.2318 235.11 62.2393 234.213 63.5949C232.839 65.6649 232.051 68.5592 232.051 72.0031C232.051 78.781 234.249 85.9252 234.249 85.9252C220.51 84.2765 208.347 84.6246 207.138 85.3756C205.672 86.2916 207.321 87.3907 207.321 87.3907C207.321 87.3907 204.207 88.4898 202.558 89.5889C200.909 90.688 201.459 91.9703 201.459 91.9703C199.994 93.4358 201.642 94.5349 201.642 94.5349C200.909 98.0154 208.42 95.4508 208.42 95.4508C208.42 95.4508 204.793 97.6674 204.94 98.7482C205.123 100.03 208.035 98.6932 209.153 98.1986C210.802 97.4659 213.183 96.3668 216.48 96.3668C219.778 96.3668 221.06 95.4508 221.06 95.4508C221.06 95.4508 240.478 105.16 246.706 97.4659C249.728 93.7472 248.354 80.796 245.607 71.8199Z" fill="#FFCDBD"/>
<path d="M201.606 91.8413C204.464 90.7605 207.45 89.6614 210.435 89.0386" stroke="#4B5563" stroke-width="0.833333" stroke-linecap="round" stroke-linejoin="round"/>
<path d="M201.644 94.5338C201.644 94.5338 206.773 92.7019 211.17 91.786" stroke="#4B5563" stroke-width="0.833333" stroke-linecap="round" stroke-linejoin="round"/>
<path d="M207.323 87.3902C209.155 86.8407 211.719 86.1079 211.719 86.1079" stroke="#4B5563" stroke-width="0.833333" stroke-linecap="round" stroke-linejoin="round"/>
<path opacity="0.2" d="M232.71 79.147C233.352 83.0122 234.249 85.9248 234.249 85.9248L237.895 86.3645C235.935 84.4777 232.71 79.147 232.71 79.147Z" fill="#161515"/>
<defs>
<clipPath id="clip0_14821_327228">
<rect width="188.333" height="140" fill="white" transform="translate(7.6665 5.55554)"/>
</clipPath>
</defs>
</svg>
