<svg width="24" height="24" viewBox="0 0 24 24" fill="none" xmlns="http://www.w3.org/2000/svg">
<path fill-rule="evenodd" clip-rule="evenodd" d="M13.25 2.25V4.83053C13.25 5.36468 13.25 5.81053 13.2797 6.17477C13.3108 6.55465 13.3779 6.91131 13.5497 7.24857C13.8134 7.76602 14.2341 8.18671 14.7515 8.45036C15.0888 8.62221 15.4454 8.68932 15.8253 8.72036C16.1896 8.75012 16.6354 8.75011 17.1696 8.7501H19.75L19.75 16.2321C19.75 17.045 19.75 17.7006 19.7066 18.2315C19.662 18.7781 19.5676 19.2583 19.3413 19.7025C18.9817 20.4081 18.4081 20.9818 17.7025 21.3413C17.2582 21.5676 16.7781 21.662 16.2315 21.7066C15.7006 21.75 15.045 21.75 14.2321 21.75H9.76788C8.95505 21.75 8.29944 21.75 7.76853 21.7066C7.2219 21.662 6.74176 21.5676 6.29754 21.3413C5.59193 20.9818 5.01825 20.4081 4.65873 19.7025C4.43239 19.2583 4.33803 18.7781 4.29336 18.2315C4.24999 17.7006 4.24999 17.045 4.25 16.2322V7.7679C4.24999 6.95508 4.24999 6.29944 4.29336 5.76854C4.33803 5.2219 4.43239 4.74176 4.65873 4.29754C5.01825 3.59193 5.59193 3.01826 6.29754 2.65873C6.74176 2.43239 7.2219 2.33803 7.76853 2.29337C8.29944 2.24999 8.95506 2.25 9.7679 2.25001L13.25 2.25ZM8 12.75C8 12.3358 8.33579 12 8.75 12H15.25C15.6642 12 16 12.3358 16 12.75C16 13.1642 15.6642 13.5 15.25 13.5H8.75C8.33579 13.5 8 13.1642 8 12.75ZM8.75 15.5C8.33579 15.5 8 15.8358 8 16.25C8 16.6642 8.33579 17 8.75 17H15.25C15.6642 17 16 16.6642 16 16.25C16 15.8358 15.6642 15.5 15.25 15.5H8.75Z" fill="#60A5FA"/>
<path d="M19.1974 6.28328C19.3819 6.5844 19.5229 6.90991 19.6163 7.2501H17.2C16.6276 7.2501 16.2434 7.24951 15.9475 7.22534C15.6604 7.20188 15.5231 7.16 15.4325 7.11385C15.1973 6.99401 15.0061 6.80279 14.8862 6.56758C14.8401 6.47702 14.7982 6.33974 14.7748 6.05262C14.7506 5.75674 14.75 5.37252 14.75 4.8001V2.38377C15.0902 2.47714 15.4156 2.61809 15.7167 2.80261C16.0964 3.03526 16.4152 3.35427 16.8758 3.81512L18.1849 5.12422C18.6457 5.5848 18.9647 5.90362 19.1974 6.28328Z" fill="#60A5FA"/>
</svg>
