<svg width="16" height="16" viewBox="0 0 16 16" fill="none" xmlns="http://www.w3.org/2000/svg">
<path fill-rule="evenodd" clip-rule="evenodd" d="M2.56693 8C2.56693 4.99925 4.99951 2.56667 8.00026 2.56667C11.001 2.56667 13.4336 4.99925 13.4336 8C13.4336 11.0007 11.001 13.4333 8.00026 13.4333C4.99951 13.4333 2.56693 11.0007 2.56693 8ZM8.00026 1.43333C4.37359 1.43333 1.43359 4.37333 1.43359 8C1.43359 11.6267 4.37359 14.5667 8.00026 14.5667C11.6269 14.5667 14.5669 11.6267 14.5669 8C14.5669 4.37333 11.6269 1.43333 8.00026 1.43333ZM11.0676 6.40069C11.2889 6.1794 11.2889 5.8206 11.0676 5.59931C10.8463 5.37801 10.4875 5.37801 10.2662 5.59931L7.33359 8.53195L6.40095 7.59931C6.17966 7.37801 5.82086 7.37801 5.59957 7.59931C5.37827 7.8206 5.37827 8.1794 5.59957 8.40069L6.9329 9.73403C7.03917 9.8403 7.1833 9.9 7.33359 9.9C7.48388 9.9 7.62802 9.8403 7.73429 9.73403L11.0676 6.40069Z" fill="#00B679"/>
</svg>
