<svg width="24" height="24" viewBox="0 0 24 24" fill="none" xmlns="http://www.w3.org/2000/svg">
<path d="M9.5 21H14.5C15.8833 21 17 19.794 17 18.3V5.7C17 4.206 15.8833 3 14.5 3H9.5C8.11667 3 7 4.206 7 5.7V18.3C7 19.794 8.11667 21 9.5 21Z" fill="#4B5563"/>
<path d="M5 6.45624V17.5438C5 17.836 4.768 18.0461 4.52 17.9913C3.336 17.7447 3 16.9592 3 15.0413V8.95869C3 7.04075 3.336 6.25531 4.52 6.00872C4.768 5.95392 5 6.16398 5 6.45624Z" fill="#4B5563"/>
<path d="M21 8.95876V15.0415C21 16.9595 20.664 17.745 19.48 17.9916C19.232 18.0464 19 17.8272 19 17.544V6.45625C19 6.16398 19.232 5.95392 19.48 6.00872C20.664 6.25532 21 7.04078 21 8.95876Z" fill="#4B5563"/>
</svg>
