<svg width="16" height="16" viewBox="0 0 16 16" fill="none" xmlns="http://www.w3.org/2000/svg">
<path fill-rule="evenodd" clip-rule="evenodd" d="M12.6961 2.58272C12.5022 2.56688 12.2493 2.56644 11.8666 2.56644H7.99989C7.68151 2.56644 7.47111 2.56675 7.30893 2.57781C7.15184 2.58853 7.0818 2.60742 7.03984 2.6248C6.85198 2.70261 6.70273 2.85186 6.62492 3.03972C6.60754 3.08167 6.58865 3.15172 6.57793 3.30881C6.57531 3.34726 6.57329 3.38843 6.57174 3.43311H9.86656L9.88908 3.43311C10.2433 3.4331 10.5429 3.43309 10.7884 3.45315C11.0458 3.47418 11.2933 3.52004 11.5291 3.64019C11.8867 3.82235 12.1773 4.11302 12.3595 4.47052C12.4796 4.70633 12.5255 4.95385 12.5465 5.21123C12.5666 5.45681 12.5666 5.75641 12.5666 6.11059V6.13311V9.42793C12.6112 9.42638 12.6524 9.42436 12.6909 9.42173C12.848 9.41102 12.918 9.39213 12.96 9.37475C13.1478 9.29694 13.2971 9.14769 13.3749 8.95983C13.3922 8.91787 13.4111 8.84783 13.4219 8.69074C13.4329 8.52856 13.4332 8.31815 13.4332 7.99977V4.13311C13.4332 3.75039 13.4328 3.49743 13.4169 3.30352C13.4016 3.11623 13.3748 3.03446 13.3497 2.98505C13.2762 2.84079 13.1589 2.7235 13.0146 2.65C12.9652 2.62483 12.8834 2.59803 12.6961 2.58272ZM5.44723 3.23166C5.44284 3.29599 5.43983 3.36463 5.43776 3.43764C5.36476 3.4397 5.29611 3.44272 5.23178 3.44711C5.01699 3.46176 4.8092 3.49362 4.60613 3.57774C4.14058 3.77057 3.7707 4.14045 3.57786 4.60601C3.49374 4.80908 3.46188 5.01686 3.44723 5.23166C3.44279 5.29677 3.43975 5.36631 3.43768 5.44031C3.35772 5.44324 3.28228 5.44736 3.21135 5.45315C2.95397 5.47418 2.70645 5.52005 2.47065 5.64019C2.11314 5.82235 1.82248 6.11302 1.64032 6.47052C1.52017 6.70633 1.4743 6.95385 1.45328 7.21123C1.43321 7.4568 1.43322 7.7564 1.43323 8.11057V8.11059V8.13311V11.8664V11.889V11.889C1.43322 12.2432 1.43321 12.5427 1.45328 12.7883C1.4743 13.0457 1.52017 13.2932 1.64032 13.529C1.82248 13.8865 2.11314 14.1772 2.47065 14.3594C2.70645 14.4795 2.95397 14.5254 3.21135 14.5464C3.45693 14.5665 3.75653 14.5665 4.11071 14.5664H4.13323H7.86656H7.88908C8.24326 14.5665 8.54286 14.5665 8.78844 14.5464C9.04582 14.5254 9.29334 14.4795 9.52914 14.3594C9.88665 14.1772 10.1773 13.8865 10.3595 13.529C10.4796 13.2932 10.5255 13.0457 10.5465 12.7883C10.5523 12.7174 10.5564 12.6419 10.5594 12.562C10.6334 12.5599 10.7029 12.5569 10.768 12.5524C10.9828 12.5378 11.1906 12.5059 11.3937 12.4218C11.8592 12.229 12.2291 11.8591 12.4219 11.3935C12.506 11.1905 12.5379 10.9827 12.5526 10.7679C12.5569 10.7036 12.56 10.6349 12.562 10.5619C12.635 10.5598 12.7037 10.5568 12.768 10.5524C12.9828 10.5378 13.1906 10.5059 13.3937 10.4218C13.8592 10.229 14.2291 9.85909 14.4219 9.39354C14.506 9.19047 14.5379 8.98268 14.5526 8.76789C14.5666 8.56252 14.5666 8.31319 14.5666 8.01849V8.01844V7.99977V4.13311V4.11059V4.11053C14.5666 3.75637 14.5666 3.45679 14.5465 3.21123C14.5255 2.95385 14.4796 2.70633 14.3595 2.47052C14.1773 2.11302 13.8867 1.82235 13.5291 1.64019C13.2933 1.52004 13.0458 1.47418 12.7884 1.45315C12.5429 1.43309 12.2433 1.4331 11.8891 1.43311H11.8891H11.8666H7.99989H7.98121H7.98118C7.68648 1.4331 7.43715 1.4331 7.23178 1.44711C7.01699 1.46176 6.8092 1.49362 6.60613 1.57774C6.14058 1.77057 5.77069 2.14045 5.57786 2.60601C5.49374 2.80908 5.46188 3.01686 5.44723 3.23166ZM10.5666 11.4279C10.6112 11.4264 10.6524 11.4244 10.6909 11.4217C10.848 11.411 10.918 11.3921 10.96 11.3747C11.1478 11.2969 11.2971 11.1477 11.3749 10.9598C11.3922 10.9179 11.4111 10.8478 11.4219 10.6907C11.4329 10.5286 11.4332 10.3182 11.4332 9.99977V6.13311C11.4332 5.75039 11.4328 5.49743 11.4169 5.30352C11.4016 5.11623 11.3748 5.03446 11.3497 4.98505C11.2762 4.84079 11.1589 4.7235 11.0146 4.65C10.9652 4.62483 10.8834 4.59803 10.6961 4.58272C10.5022 4.56688 10.2493 4.56644 9.86656 4.56644H5.99989C5.68151 4.56644 5.47111 4.56675 5.30893 4.57781C5.15184 4.58853 5.0818 4.60742 5.03984 4.6248C4.85198 4.70261 4.70273 4.85186 4.62492 5.03972C4.60754 5.08167 4.58865 5.15172 4.57793 5.30881C4.57531 5.34726 4.57329 5.38843 4.57174 5.43311H7.86656L7.88908 5.43311H7.88909C8.24327 5.4331 8.54286 5.43309 8.78844 5.45315C9.04582 5.47418 9.29334 5.52005 9.52914 5.64019C9.88665 5.82235 10.1773 6.11302 10.3595 6.47052C10.4796 6.70633 10.5255 6.95385 10.5465 7.21123C10.5666 7.45681 10.5666 7.75641 10.5666 8.11059V8.11059V8.13311V11.4279ZM2.98517 6.65C3.03458 6.62483 3.11635 6.59803 3.30364 6.58272C3.49755 6.56688 3.75051 6.56644 4.13323 6.56644H7.86656C8.24928 6.56644 8.50224 6.56688 8.69615 6.58272C8.88344 6.59803 8.96521 6.62483 9.01462 6.65C9.15888 6.72351 9.27616 6.84079 9.34967 6.98505C9.37484 7.03446 9.40164 7.11623 9.41695 7.30352C9.43279 7.49743 9.43323 7.75039 9.43323 8.13311V11.8664C9.43323 12.2492 9.43279 12.5021 9.41695 12.696C9.40164 12.8833 9.37484 12.9651 9.34967 13.0145C9.27616 13.1588 9.15888 13.276 9.01462 13.3495C8.96521 13.3747 8.88344 13.4015 8.69615 13.4168C8.50224 13.4327 8.24928 13.4331 7.86656 13.4331H4.13323C3.75051 13.4331 3.49755 13.4327 3.30364 13.4168C3.11635 13.4015 3.03458 13.3747 2.98517 13.3495C2.84091 13.276 2.72363 13.1588 2.65012 13.0145C2.62495 12.9651 2.59815 12.8833 2.58285 12.696C2.567 12.5021 2.56656 12.2492 2.56656 11.8664V8.13311C2.56656 7.75039 2.567 7.49743 2.58285 7.30352C2.59815 7.11623 2.62495 7.03446 2.65012 6.98505C2.72363 6.84079 2.84091 6.72351 2.98517 6.65Z" fill="#6B7280"/>
</svg>
